<?xml version="1.0" standalone="no"?>
<!DOCTYPE svg PUBLIC "-//W3C//DTD SVG 20010904//EN"
 "http://www.w3.org/TR/2001/REC-SVG-20010904/DTD/svg10.dtd">
<svg version="1.0" xmlns="http://www.w3.org/2000/svg"
 width="120.000000pt" height="120.000000pt" viewBox="0 0 120.000000 120.000000"
 preserveAspectRatio="xMidYMid meet">
<metadata>
Created by potrace 1.14, written by Peter Selinger 2001-2017
</metadata>
<g transform="translate(0.000000,120.000000) scale(0.100000,-0.100000)"
fill="#000000" stroke="none">
<path d="M448 1168 c-7 -7 -40 -21 -73 -32 -100 -31 -113 -37 -129 -61 -30
-45 -30 -96 -1 -192 7 -21 4 -23 -28 -23 -81 0 -125 -35 -173 -136 -52 -109
-45 -154 43 -259 32 -38 71 -71 107 -90 34 -19 56 -37 56 -47 0 -10 -24 -41
-52 -69 l-53 -52 47 33 c27 19 50 31 53 28 13 -12 17 -126 5 -148 -12 -22 -11
-23 23 -17 30 5 42 0 72 -23 47 -38 96 -53 170 -54 83 -1 185 49 234 116 l35
47 32 -48 c36 -53 79 -84 47 -33 -10 15 -24 32 -32 38 -13 10 -13 16 -3 39 10
21 17 26 35 21 12 -3 41 -8 64 -12 23 -3 51 -16 61 -28 26 -28 62 -96 62 -118
0 -9 5 -20 11 -24 16 -10 1 52 -24 95 -49 86 -48 85 -30 99 9 6 25 12 35 12
10 0 18 5 18 10 0 6 10 10 23 10 84 0 137 155 86 255 -48 96 -60 114 -91 140
-18 15 -48 34 -67 42 l-33 14 28 31 c16 17 41 43 57 58 20 22 27 38 27 69 0
22 -4 43 -10 46 -5 3 -10 19 -10 35 0 27 -38 70 -62 70 -4 0 -30 22 -56 49
-55 57 -79 71 -122 71 -41 0 -80 -21 -118 -64 -17 -20 -36 -36 -41 -36 -5 0
-26 25 -46 56 -20 30 -51 64 -69 75 -35 22 -88 25 -108 7z m28 -98 c8 0 14 3
14 8 0 4 14 7 31 6 28 -1 32 -5 36 -34 4 -41 -11 -60 -49 -60 -20 0 -31 6 -38
23 -5 12 -9 17 -9 10 -1 -6 -3 -18 -7 -26 -3 -8 7 -28 21 -45 15 -18 23 -36
20 -42 -4 -6 -2 -17 4 -24 17 -20 2 -46 -26 -46 -20 0 -24 4 -21 23 2 14 -6
30 -24 45 -21 18 -25 28 -20 45 4 12 7 43 7 69 0 50 3 56 23 36 9 -9 12 -7 13
13 0 13 3 18 6 12 2 -7 11 -13 19 -13z m-84 -33 c15 -21 17 -27 5 -18 -15 12
-17 11 -17 -14 0 -52 -56 -85 -88 -53 -17 17 -15 36 8 68 14 19 26 27 39 23
16 -4 19 -1 14 18 -8 29 9 19 39 -24z m474 19 c18 5 24 2 24 -10 0 -9 6 -16
13 -16 7 0 19 -9 27 -20 8 -11 21 -20 28 -20 8 0 12 -6 8 -15 -4 -10 1 -15 14
-15 25 0 26 -15 3 -30 -16 -10 -15 -11 5 -7 32 7 27 -10 -8 -28 -38 -20 -39
-27 0 -14 42 15 62 4 22 -11 -21 -8 -29 -15 -22 -20 18 -11 -59 -54 -127 -70
-25 -6 -33 -5 -33 6 0 8 -7 14 -15 14 -8 0 -15 5 -15 11 0 7 -10 9 -26 5 -20
-5 -27 -3 -31 13 -3 11 -11 17 -18 15 -28 -11 -46 66 -25 106 17 32 79 95 86
87 4 -3 18 3 33 14 15 12 27 16 29 10 2 -6 14 -8 28 -5z m-463 -173 l26 -28
-25 -1 c-17 -1 -24 3 -22 14 2 8 -3 17 -9 19 -7 3 -13 -2 -13 -10 0 -17 18
-33 45 -40 18 -4 18 -5 -2 -6 -13 0 -31 7 -42 17 -10 9 -29 25 -42 35 l-24 17
31 -6 c19 -3 34 -2 38 5 9 15 8 15 39 -16z m163 -28 c-3 -9 -14 -15 -23 -13
-22 4 -30 38 -11 49 18 11 43 -15 34 -36z m-238 -23 c4 -25 -23 -62 -44 -62
-36 0 -48 43 -21 78 17 22 62 11 65 -16z m282 4 c0 -7 -7 -19 -15 -26 -19 -16
-41 1 -32 24 8 20 47 21 47 2z m-86 -12 c9 -3 16 -12 16 -19 0 -21 -29 -45
-45 -39 -18 7 -20 35 -3 52 14 14 12 14 32 6z m-54 -35 c0 -14 -7 -19 -25 -19
-26 0 -33 18 -14 37 16 16 39 5 39 -18z m125 -25 c0 -10 -8 -20 -18 -22 -22
-4 -35 27 -16 39 20 12 34 5 34 -17z m-336 -14 c20 -17 42 -36 49 -42 8 -6 12
-21 9 -35 -3 -16 1 -27 14 -34 10 -5 16 -15 13 -23 -3 -7 2 -16 10 -19 24 -9
19 -24 -11 -35 l-28 -10 35 -2 35 -1 -25 -14 c-14 -8 -20 -14 -14 -15 6 0 10
-16 9 -37 -3 -43 -24 -55 -76 -43 -19 4 -29 9 -24 10 6 1 -3 5 -20 9 -20 4
-30 12 -29 24 1 11 -5 17 -18 17 -10 0 -16 5 -13 10 3 6 -1 10 -10 10 -9 0
-14 4 -10 9 3 5 -5 17 -17 25 -22 16 -22 16 -3 31 11 8 14 15 8 15 -9 0 -11
11 -8 35 3 28 1 35 -13 36 -16 1 -15 2 1 6 21 5 23 23 2 23 -25 0 -17 17 12
25 19 4 23 9 14 15 -10 6 -8 9 8 15 12 3 19 11 16 16 -15 23 51 6 84 -21z
m401 11 c0 -20 -13 -41 -25 -41 -18 0 -28 17 -21 35 6 16 46 21 46 6z m-122
-30 c-4 -20 -48 -28 -48 -9 0 20 20 37 37 31 8 -3 13 -13 11 -22z m77 -47 c0
-12 -8 -20 -22 -22 -25 -4 -31 16 -11 36 17 17 33 10 33 -14z m-70 -10 c0 -10
-8 -20 -17 -22 -18 -3 -26 27 -11 42 12 11 28 0 28 -20z m430 -44 c3 -5 26
-18 50 -29 37 -16 45 -25 51 -56 4 -21 2 -41 -4 -47 -6 -6 -8 -25 -5 -44 3
-18 3 -44 -1 -58 -9 -34 -49 -76 -74 -76 -11 0 -22 -6 -25 -12 -7 -23 -93 27
-127 73 -35 48 -38 84 -10 119 11 14 20 30 20 36 0 13 28 73 43 92 11 14 73
16 82 2z m-318 -235 c7 12 15 14 35 6 31 -12 40 -33 28 -65 -12 -32 -50 -76
-66 -76 -6 0 -15 -11 -18 -25 -4 -15 -11 -22 -20 -19 -7 3 -16 -2 -19 -10 -4
-9 -13 -13 -21 -10 -8 3 -17 0 -21 -6 -5 -8 -10 -8 -21 1 -11 9 -16 6 -25 -15
-14 -31 -29 -34 -29 -6 0 11 -7 20 -15 20 -8 0 -15 5 -15 10 0 6 -7 10 -15 10
-9 0 -18 12 -22 30 -3 17 -10 33 -14 36 -5 3 -9 16 -9 30 0 20 10 29 58 51 31
15 60 29 65 31 4 2 7 -6 7 -18 0 -12 4 -19 9 -16 5 4 12 -7 16 -24 7 -33 25
-41 25 -11 0 10 7 24 15 31 8 7 15 20 15 30 0 26 12 32 31 14 16 -14 18 -14
26 1z"/>
<path d="M47 84 c-4 -4 -7 -14 -7 -23 0 -11 3 -12 11 -4 6 6 10 16 7 23 -2 6
-7 8 -11 4z"/>
<path d="M894 71 c3 -5 27 -14 53 -20 27 -7 57 -14 68 -18 15 -4 17 -2 9 6 -6
7 -29 14 -50 17 -21 3 -43 9 -48 14 -12 12 -39 13 -32 1z"/>
</g>
</svg>
